<svg id="Layer_1" data-name="Layer 1" xmlns="http://www.w3.org/2000/svg" xmlns:xlink="http://www.w3.org/1999/xlink" viewBox="0 0 325.35 362.86"><defs><style>.cls-1{fill:#fff;}.cls-2{fill:url(#radial-gradient);}.cls-3{fill:#22c55e;}</style><radialGradient id="radial-gradient" cx="240.48" cy="256.58" r="206.28" gradientUnits="userSpaceOnUse"><stop offset="0" stop-color="#15803d"/><stop offset="0.2" stop-color="#16843f"/><stop offset="0.4" stop-color="#189045"/><stop offset="0.6" stop-color="#1ca44e"/><stop offset="0.79" stop-color="#21bf5b"/><stop offset="0.83" stop-color="#22c55e"/></radialGradient></defs><polygon class="cls-1" points="162.69 362.84 162.68 362.86 162.66 362.84 162.69 362.84"/><polygon points="162.69 362.84 162.66 362.84 162.68 362.86 162.69 362.84 162.69 362.84"/><path class="cls-2" d="M400.86,130.34A42.31,42.31,0,0,1,398.4,136L286.48,350.08l-46,87.92h-.06l-46-87.92L82.56,136c-.59-1.12-1.12-2.26-1.59-3.41l-.24-.6a41.74,41.74,0,0,1,19.49-52.33,39.76,39.76,0,0,1,53.67,16.82l69.55,133a19.23,19.23,0,0,0,34.08,0l69.55-133a39.78,39.78,0,0,1,53.67-16.82A41.77,41.77,0,0,1,400.86,130.34Z" transform="translate(-77.8 -75.16)"/><polygon class="cls-1" points="162.69 362.84 162.67 362.86 162.66 362.84 162.69 362.84"/><polygon points="162.69 362.84 162.66 362.84 162.67 362.86 162.69 362.84 162.69 362.84"/><path class="cls-3" d="M401.19,129.29l-.33,1.05A42.31,42.31,0,0,1,398.4,136L286.48,350.08l-46,87.92v0l0,0,0,0v0l-46-87.92L82.56,136c-.59-1.12-1.12-2.26-1.59-3.41l-1.2-3.33C80.91,131,155.65,240,241,240S400,131,401.19,129.29Z" transform="translate(-77.8 -75.16)"/><path class="cls-1" d="M240.48,220.38" transform="translate(-77.8 -75.16)"/></svg>